<svg xmlns="http://www.w3.org/2000/svg" width="195" height="43" viewBox="144.854 32.025 195 43"
     enable-background="new 144.854 32.025 195 43">
    <path fill="#fff"
          d="M243.432 58.856c0 1.827 1.48 3.307 3.307 3.307h23.512c1.825 0 3.306-1.48 3.306-3.307V35.344c0-1.826-1.48-3.306-3.306-3.306H246.74c-1.827 0-3.308 1.48-3.308 3.306v23.512zM276.28 58.856c0 1.827 1.48 3.307 3.306 3.307H303.1c1.825 0 3.304-1.48 3.304-3.307V35.344c0-1.826-1.48-3.306-3.305-3.306h-23.514c-1.825 0-3.306 1.48-3.306 3.306v23.512zM309.173 58.856c0 1.827 1.48 3.307 3.306 3.307h23.512c1.826 0 3.307-1.48 3.307-3.307V35.344c0-1.826-1.482-3.306-3.308-3.306H312.48c-1.826 0-3.307 1.48-3.307 3.306v23.512zM210.562 58.856c0 1.827 1.48 3.307 3.306 3.307h23.513c1.827 0 3.307-1.48 3.307-3.307V35.344c0-1.826-1.48-3.306-3.306-3.306H213.87c-1.826 0-3.306 1.48-3.306 3.306v23.512z"/>
    <path fill="#565656"
          d="M236.596 40.416l-5.486 13.7h-2.73l-2.737-8.2-2.756 8.2h-2.723l-5.484-13.7h3.093l3.75 9.932 3.1-9.932h2.055l3.076 9.934 3.752-9.934h3.09zM265.343 54.105h-2.73v-5.483h-8.24v5.483h-2.73V43.16c0-.8.252-1.46.76-1.977.505-.518 1.16-.776 1.97-.776h8.24c.647 0 1.265.294 1.85.882s.88 1.21.88 1.87v10.945zm-2.73-8.238V43.16h-8.24v2.707h8.24zM298.263 54.105h-4.133l-6.42-5.483h-.42v5.483h-2.73v-13.7h10.504c.756 0 1.397.27 1.933.8.532.535.798 1.187.798 1.955v2.707c0 1.837-.91 2.755-2.73 2.755H291.7l6.563 5.483zm-3.2-8.238V43.16h-7.772v2.707h7.774zM318.75 40.406h10.947v2.753h-8.217v2.706h8.217v2.755h-8.217v2.73h8.217v2.754H318.75"/>
    <path fill="#fff"
          d="M177.74 58.856c0 1.827 1.48 3.307 3.306 3.307h23.512c1.826 0 3.307-1.48 3.307-3.307V35.344c0-1.826-1.48-3.306-3.307-3.306h-23.512c-1.826 0-3.307 1.48-3.307 3.306v23.512zM144.854 58.856c0 1.827 1.48 3.307 3.306 3.307h23.512c1.826 0 3.307-1.48 3.307-3.307V35.344c0-1.826-1.48-3.306-3.308-3.306H148.16c-1.826 0-3.306 1.48-3.306 3.306v23.512z"/>
    <path fill="#565656"
          d="M199.65 54.11h-2.73v-5.486h-8.24v5.486h-2.73V43.165c0-.8.25-1.46.757-1.978.506-.518 1.163-.777 1.973-.777h8.24c.647 0 1.264.293 1.85.883.586.588.88 1.212.88 1.87V54.11zm-2.73-8.24v-2.706h-8.24v2.707h8.24zM167.068 47.276c0 1.683-.537 3.18-1.61 4.493-1.073 1.315-2.443 2.136-4.11 2.462v2.614h-2.73v-2.614c-1.663-.326-3.033-1.146-4.106-2.463-1.073-1.314-1.61-2.812-1.61-4.494 0-1.96.692-3.632 2.076-5.017 1.386-1.385 3.057-2.077 5.018-2.077 1.947 0 3.61.692 4.997 2.076 1.383 1.384 2.075 3.055 2.075 5.016zm-2.73.012c0-1.193-.424-2.218-1.273-3.07-.847-.855-1.87-1.28-3.07-1.28s-2.223.425-3.08 1.28c-.854.853-1.282 1.877-1.282 3.07 0 1.18.428 2.198 1.282 3.05.857.853 1.883 1.28 3.08 1.28s2.223-.427 3.07-1.28c.85-.853 1.273-1.87 1.273-3.05z"/>
    <g fill="#fff">
        <path d="M211.73 73.99c.266.275.638.414 1.115.414.657 0 1.137-.134 1.436-.4.302-.268.456-.56.462-.878v-.031c0-.036-.002-.07-.005-.104-.005-.033-.01-.063-.017-.093-.038-.224-.13-.438-.282-.64-.15-.202-.346-.346-.586-.434l-.264-.087c-.092-.028-.184-.06-.278-.087-.058-.022-.113-.04-.167-.056-.055-.014-.11-.033-.17-.054-.555-.174-1.068-.407-1.54-.704-.468-.297-.703-.8-.703-1.508 0-.47.205-.897.617-1.283.412-.388.937-.582 1.572-.582.658 0 1.216.148 1.675.445.46.297.706.716.742 1.26l-.715-.013c0-.268-.148-.513-.443-.736-.297-.227-.716-.338-1.26-.338-.433.02-.78.16-1.036.412-.256.254-.395.527-.417.824v.064c0 .03.002.062.005.098.005.036.01.068.017.098.037.173.12.343.25.51.13.167.31.308.543.422.13.065.26.124.395.174l.396.153c.08.027.158.055.237.08.08.025.157.053.23.082.52.172.977.382 1.37.632.396.25.59.683.59 1.297 0 .8-.265 1.347-.8 1.635-.536.29-1.12.44-1.754.457h-.1c-.635 0-1.153-.165-1.556-.494-.4-.33-.64-.862-.72-1.598l.705-.012c.036.436.186.792.455 1.07zM216.986 71.197c0-1.048.26-1.933.78-2.65.522-.72 1.33-1.08 2.418-1.08.99 0 1.756.343 2.3 1.03.54.688.86 1.438.953 2.255.014.094.023.184.026.27.004.09.007.176.007.262v.118c-.02.89-.287 1.702-.798 2.434-.508.734-1.34 1.102-2.487 1.102-1.17 0-1.986-.357-2.45-1.073-.46-.716-.71-1.6-.75-2.657v-.01zm.694 0c0 .865.202 1.605.607 2.218.405.61 1.038.915 1.897.915.862 0 1.492-.282 1.897-.846s.608-1.297.608-2.2c0-.86-.21-1.608-.633-2.245-.423-.636-1.047-.954-1.87-.954-.696 0-1.255.257-1.687.77-.43.513-.692 1.08-.786 1.7-.014.08-.026.163-.033.25-.008.088-.01.17-.01.25v.033c0 .013.002.027.01.04v.075-.008zM229.42 67.685v.628h-3.383v2.57h3.21v.627h-3.21v3.352h-.692v-7.177h4.074zM235.643 67.76v.553h-2.354v6.55h-.716v-6.55h-2.255v-.552h5.323zM236.737 67.685l1.702 6.406 2.038-6.405h.878l2.188 6.406 1.552-6.405h.694l-1.777 7.177h-.955l-2.19-6.472-1.94 6.472h-.942l-1.942-7.177h.693zM249.866 67.685l2.893 7.177h-.78l-.77-1.94h-3.534l-.695 1.94h-.777l2.896-7.177h.766zm-.39.627l-1.573 3.967h3.046l-1.475-3.968zM256.9 67.76c.672.01 1.168.19 1.485.547.318.357.476.75.476 1.177 0 .515-.096.888-.29 1.118-.196.232-.492.41-.89.532.18.023.317.06.41.115.095.053.173.108.23.166.013.023.03.042.05.06l.048.06c.008.016.014.028.025.04.012.01.02.02.028.025.123.14.203.363.243.675.04.312.076.642.104.99V73.35c.022.31.05.608.088.89.035.283.096.496.184.643l-.695-.01c-.1-.116-.167-.294-.2-.533-.032-.24-.06-.497-.08-.772 0-.052-.002-.104-.007-.158-.003-.055-.01-.11-.017-.17-.034-.45-.116-.86-.248-1.23-.13-.376-.42-.563-.866-.563h-2.113v3.424h-.695v-7.107h2.733zm-2.037 3.046h1.734c.468.008.85-.088 1.137-.287.29-.2.436-.52.436-.96 0-.43-.132-.745-.39-.946-.263-.2-.684-.3-1.27-.3h-1.647v2.492zM265.41 67.685v.628h-3.6v2.57h3.446v.627h-3.446v2.733h3.76v.618h-4.466v-7.176h4.305zM276.986 67.685v.628h-3.6v2.57h3.45v.627h-3.45v2.733h3.763v.618h-4.466v-7.176h4.302zM279.623 67.685l4 6.245v-6.245h.693v7.177h-.858l-3.912-6.168v6.168h-.693v-7.177h.77zM291.666 71.197v3.358c-.174.104-.36.18-.558.24-.2.058-.405.105-.614.142-.202.028-.405.05-.607.065-.202.014-.388.022-.562.022-1.055 0-1.88-.352-2.47-1.052-.595-.702-.89-1.6-.89-2.69 0-.193.013-.4.04-.617.03-.216.08-.438.154-.66.173-.593.49-1.14.952-1.636.463-.5 1.12-.75 1.975-.75.706 0 1.292.176 1.756.525.46.352.71.798.746 1.34l-.78-.01c-.052-.32-.186-.57-.407-.755-.222-.184-.457-.315-.71-.396-.11-.028-.213-.05-.313-.065-.102-.015-.2-.022-.292-.022-.746 0-1.323.294-1.73.88-.41.584-.61 1.308-.61 2.167 0 1.106.213 1.875.643 2.31.43.434.902.69 1.416.77.087.015.172.024.26.032.087.007.174.01.26.01.115 0 .245-.005.39-.016.145-.01.288-.025.435-.048.145-.022.29-.053.434-.093.146-.04.275-.088.39-.147v-2.29h-1.81V71.2h2.506-.004zM294.493 67.685v7.177h-.693v-7.177h.693zM297.4 67.685l4 6.245v-6.245h.693v7.177h-.854l-3.915-6.168v6.168h-.695v-7.177h.77zM308.487 67.685v.628h-3.6v2.57h3.45v.627h-3.45v2.733h3.762v.618h-4.466v-7.176h4.303zM314.788 67.685v.628h-3.6v2.57h3.446v.627h-3.445v2.733h3.76v.618h-4.467v-7.176h4.305zM319.535 67.76c.673.01 1.167.19 1.485.547.317.357.478.75.478 1.177 0 .515-.1.888-.292 1.118-.195.232-.493.41-.89.532.18.023.318.06.41.115.095.053.17.108.23.166.014.023.03.042.046.06.02.02.036.04.05.06.007.016.017.028.028.04l.025.025c.123.14.205.363.243.675.042.312.075.642.105.99V73.35c.02.31.05.608.085.89.037.283.1.496.186.643l-.694-.01c-.102-.116-.17-.294-.2-.533-.033-.24-.06-.497-.083-.772 0-.052-.002-.104-.004-.158l-.017-.17c-.036-.45-.12-.86-.25-1.23-.13-.376-.42-.563-.865-.563h-2.114v3.424h-.69v-7.107h2.73zm-2.038 3.046h1.734c.472.008.85-.088 1.14-.287.29-.2.434-.52.434-.96 0-.43-.13-.745-.392-.946-.26-.2-.682-.3-1.268-.3h-1.648v2.492zM324.402 67.685v7.177h-.69v-7.177h.69zM327.31 67.685l3.997 6.245v-6.245h.695v7.177h-.856l-3.914-6.168v6.168h-.692v-7.177h.77zM339.35 71.197v3.358c-.172.104-.36.18-.56.24-.196.058-.4.105-.61.142-.202.028-.405.05-.607.065-.202.014-.39.022-.564.022-1.056 0-1.88-.352-2.473-1.052-.593-.702-.888-1.6-.888-2.69 0-.193.014-.4.042-.617.028-.216.08-.438.15-.66.174-.593.492-1.14.956-1.636.46-.5 1.12-.75 1.972-.75.71 0 1.295.176 1.756.525.464.352.713.798.75 1.34l-.783-.01c-.05-.32-.186-.57-.404-.755-.223-.184-.46-.315-.712-.396-.108-.028-.214-.05-.315-.065-.102-.015-.197-.022-.292-.022-.744 0-1.32.294-1.73.88-.407.584-.61 1.308-.61 2.167 0 1.106.215 1.875.645 2.31.43.434.9.69 1.414.77.086.015.174.024.26.032.088.007.175.01.26.01.115 0 .247-.005.39-.016.147-.01.29-.025.434-.048.146-.022.29-.053.436-.093.144-.04.273-.088.39-.147v-2.29h-1.81V71.2h2.504-.004z"/>
    </g>
    <path fill="none" stroke="#929497" stroke-width=".25"
          d="M317.138 62.162M316.944 67.645M150.53 32.025M150.53 62.23"/>
</svg>